<svg xmlns="http://www.w3.org/2000/svg" width="129" height="70" viewBox="0 0 129 70">
  <metadata><?xpacket begin="﻿" id="W5M0MpCehiHzreSzNTczkc9d"?>
<x:xmpmeta xmlns:x="adobe:ns:meta/" x:xmptk="Adobe XMP Core 5.6-c138 79.159824, 2016/09/14-01:09:01        ">
   <rdf:RDF xmlns:rdf="http://www.w3.org/1999/02/22-rdf-syntax-ns#">
      <rdf:Description rdf:about=""/>
   </rdf:RDF>
</x:xmpmeta>
                                                                                                    
                                                                                                    
                                                                                                    
                                                                                                    
                                                                                                    
                                                                                                    
                                                                                                    
                                                                                                    
                                                                                                    
                                                                                                    
                                                                                                    
                                                                                                    
                                                                                                    
                                                                                                    
                                                                                                    
                                                                                                    
                                                                                                    
                                                                                                    
                                                                                                    
                                                                                                    
                           
<?xpacket end="w"?></metadata>
<defs>
    <style>
      .cls-1 {
        fill: #fff;
        fill-rule: evenodd;
      }
    </style>
  </defs>
  <path id="logo-satori" class="cls-1" d="M189.572,55.984l-1.137,2.073,10.788,18.978-19.308.006,5.635-10.027-0.99-1.678-0.157-.273,0,0-0.013-.022-7.918,14.02h26.2Zm7.558,4.1-1.2,2.047,11.147,19.5H196.812l1.157,2.021h12.513Zm-2.275,14.4L181.513,51,180.4,53.1,192.579,74.48h2.276ZM157.789,98.358h-0.132l-6.446,11.768h2.294s4.078-7.482,4.232-7.767c0.153,0.285,4.271,7.767,4.271,7.767h2.259l-6.451-11.768h-0.027Zm-21.636,6.369a4.271,4.271,0,0,0-.953-0.778,11.038,11.038,0,0,0-1.3-.674l-0.748-.342a4.307,4.307,0,0,1-1.276-.752,1.353,1.353,0,0,1-.391-1.025,1.278,1.278,0,0,1,.4-0.974,1.54,1.54,0,0,1,1.1-.376,1.973,1.973,0,0,1,1.1.274,2.529,2.529,0,0,1,.757.856l1.411-.873a3.519,3.519,0,0,0-1.318-1.4,3.887,3.887,0,0,0-1.947-.45,3.779,3.779,0,0,0-1.318.223,3.052,3.052,0,0,0-1.03.617,2.812,2.812,0,0,0-.663.934,2.919,2.919,0,0,0-.238,1.191,3.444,3.444,0,0,0,.187,1.183,2.875,2.875,0,0,0,.536.917,3.75,3.75,0,0,0,.85.72,8.284,8.284,0,0,0,1.131.591l0.766,0.343a8.65,8.65,0,0,1,.833.411,3.28,3.28,0,0,1,.6.438,1.61,1.61,0,0,1,.374.514,1.592,1.592,0,0,1,.128.66,1.392,1.392,0,0,1-.562,1.157,2.28,2.28,0,0,1-1.446.437,2.593,2.593,0,0,1-1.649-.471,4.153,4.153,0,0,1-1-1.155l-1.48.822a4.192,4.192,0,0,0,.613.93,4,4,0,0,0,.893.763,4.379,4.379,0,0,0,1.182.516,5.472,5.472,0,0,0,1.48.187,5.073,5.073,0,0,0,1.5-.214,3.5,3.5,0,0,0,1.191-.623,2.859,2.859,0,0,0,.782-1.008,3.187,3.187,0,0,0,.281-1.367,3.628,3.628,0,0,0-.2-1.239A2.931,2.931,0,0,0,136.153,104.727Zm77.241-.56a6.179,6.179,0,0,0-.48-2.455,5.913,5.913,0,0,0-3.242-3.21,6.188,6.188,0,0,0-2.38-.456,6.251,6.251,0,0,0-2.389.456,5.891,5.891,0,0,0-3.251,3.21,6.521,6.521,0,0,0,0,4.911,5.893,5.893,0,0,0,3.251,3.21,6.253,6.253,0,0,0,2.389.456,6.189,6.189,0,0,0,2.38-.456,5.915,5.915,0,0,0,3.242-3.21A6.18,6.18,0,0,0,213.394,104.167Zm-2.2,1.763a4.291,4.291,0,0,1-.872,1.412,4.025,4.025,0,0,1-1.333.939,4.171,4.171,0,0,1-1.7.342,4.231,4.231,0,0,1-1.709-.342,4,4,0,0,1-1.342-.939,4.291,4.291,0,0,1-.872-1.412,5.106,5.106,0,0,1,0-3.526,4.3,4.3,0,0,1,.872-1.411,4,4,0,0,1,1.342-.939,4.233,4.233,0,0,1,1.709-.342,4.172,4.172,0,0,1,1.7.342,4.025,4.025,0,0,1,1.333.939,4.3,4.3,0,0,1,.872,1.411A5.106,5.106,0,0,1,211.2,105.93Zm24.224-1.145a4.266,4.266,0,0,0,.6-2.333,4.786,4.786,0,0,0-.34-1.842,3.807,3.807,0,0,0-.985-1.4,4.448,4.448,0,0,0-1.6-.894A6.946,6.946,0,0,0,230.914,98h-2.963v11.927H229.8v-3.069h1.115c0.163,0,.328-0.006.5-0.018s0.334-.029.5-0.053l2.127,3.14h2.127l-2.511-3.683A3.843,3.843,0,0,0,235.421,104.785Zm-4.576.474H229.8V99.628h1.046a3.579,3.579,0,0,1,2.519.737,3.187,3.187,0,0,1,.008,4.157A3.574,3.574,0,0,1,230.845,105.259Zm26.676-6.848H256.1v11.513H258V98.411h-0.479Zm-69.289,0H176.788v1.91h4.772v9.805h1.9v-9.805h4.773v-1.91Zm-32.959,18.18L153.5,120.95h0.447l0.284-.723H156.4l0.29,0.723h0.48l-1.816-4.359h-0.076Zm0.958,3.242h-1.847l0.756-1.916c0.082-.2.171-0.514,0.171-0.514a5.371,5.371,0,0,0,.164.514Zm5.918-.285c0,0.183.031,0.489,0.031,0.489s-0.176-.255-0.3-0.4l-2.56-3.046h-0.076v4.359h0.429v-2.913c0-.184-0.038-0.487-0.038-0.487s0.177,0.253.3,0.4l2.559,3.045h0.076v-4.359h-0.422v2.913Zm4.284-2.957-1.778,4.359H165.1l0.284-.723h2.169l0.29,0.723h0.479l-1.816-4.359h-0.076Zm0.959,3.242h-1.848l0.757-1.916c0.082-.2.17-0.514,0.17-0.514a5.371,5.371,0,0,0,.164.514Zm3.47-3.2h-0.454v4.315h2.478v-0.406h-2.024v-3.909Zm5.255,2.145a4.581,4.581,0,0,0-.183.438,2.851,2.851,0,0,0-.183-0.438l-1.166-2.145h-0.511L175.7,119.6v1.352h0.466v-1.37l1.589-2.945h-0.473Zm3.4-1.739h1.318v3.909h0.454v-3.909H182.6v-0.406h-3.09v0.406Zm5.167,3.909h0.46v-4.315h-0.46v4.315Zm4.869-.362a1.8,1.8,0,0,1,0-3.591,1.564,1.564,0,0,1,1.356.679l0.347-.253a1.92,1.92,0,0,0-1.7-.838,2.208,2.208,0,0,0,0,4.415,2.052,2.052,0,0,0,1.766-.888l-0.353-.247A1.642,1.642,0,0,1,189.548,120.588Zm5.325-2.049-0.34-.159a0.837,0.837,0,0,1-.681-0.773,0.608,0.608,0,0,1,.681-0.616,0.871,0.871,0,0,1,.794.47l0.366-.229a1.262,1.262,0,0,0-1.16-.647,1.042,1.042,0,0,0-1.129,1.034,1.245,1.245,0,0,0,.946,1.18l0.34,0.159a1.006,1.006,0,0,1,.808.9,0.787,0.787,0,0,1-.889.735,1.164,1.164,0,0,1-1.1-.672l-0.378.2a1.552,1.552,0,0,0,1.494.875,1.177,1.177,0,0,0,1.33-1.141A1.407,1.407,0,0,0,194.873,118.539Zm7.451-1.948-1.778,4.359h0.447l0.284-.723h2.169l0.29,0.723h0.479l-1.815-4.359h-0.076Zm0.958,3.242h-1.847l0.756-1.916c0.082-.2.171-0.514,0.171-0.514a5.371,5.371,0,0,0,.164.514Zm4.726-.526h1.273v0.887a1.968,1.968,0,0,1-1.267.394,1.8,1.8,0,0,1-.038-3.591,1.54,1.54,0,0,1,1.186.458l0.309-.311a1.965,1.965,0,0,0-1.5-.559,2.208,2.208,0,1,0,.038,4.415,2.4,2.4,0,0,0,1.7-.6v-1.5h-1.7v0.406Zm4.41,0.158h1.924v-0.4h-1.924v-2.024h2.157v-0.406h-2.61v4.315h2.7v-0.406h-2.245v-1.079Zm7.368,0.083c0,0.183.031,0.489,0.031,0.489s-0.176-.255-0.3-0.4l-2.56-3.046h-0.076v4.359h0.429v-2.913c0-.184-0.038-0.487-0.038-0.487s0.177,0.253.3,0.4l2.559,3.045h0.076v-4.359h-0.422v2.913Zm4.814,1.04a1.8,1.8,0,0,1,0-3.591,1.566,1.566,0,0,1,1.356.679l0.346-.253a1.919,1.919,0,0,0-1.7-.838,2.208,2.208,0,0,0,0,4.415,2.052,2.052,0,0,0,1.765-.888l-0.353-.247A1.641,1.641,0,0,1,224.6,120.588Zm5.482-1.808a4.461,4.461,0,0,0-.182.438,2.965,2.965,0,0,0-.183-0.438l-1.167-2.145h-0.51l1.62,2.963v1.352h0.467v-1.37l1.589-2.945h-0.473Z" transform="translate(-129 -51)"/>
</svg>
